<?xml version="1.0" standalone="no"?>
<!DOCTYPE svg PUBLIC "-//W3C//DTD SVG 20010904//EN"
 "http://www.w3.org/TR/2001/REC-SVG-20010904/DTD/svg10.dtd">
<svg version="1.0" xmlns="http://www.w3.org/2000/svg"
 width="70.000000pt" height="70.000000pt" viewBox="0 0 70.000000 70.000000"
 preserveAspectRatio="xMidYMid meet">
<metadata>
Created by potrace 1.11, written by Peter Selinger 2001-2013
</metadata>
<g transform="translate(0.000000,70.000000) scale(0.100000,-0.100000)"
fill="#000000" stroke="none">
<path d="M2 583 c3 -110 4 -118 23 -118 18 0 20 7 21 80 2 107 2 107 14 100 6
-3 10 -3 10 2 0 4 128 8 285 8 157 0 285 -4 285 -8 0 -5 3 -6 8 -4 8 6 8 -580
0 -589 -3 -3 -44 -6 -91 -6 -89 -2 -116 9 -111 45 1 9 -2 17 -7 17 -5 0 -9 11
-9 23 0 13 -3 27 -7 31 -4 3 -8 17 -10 29 -2 12 -6 29 -10 37 -3 8 -7 17 -8
20 0 3 -7 22 -14 43 -7 21 -10 44 -7 52 7 20 -10 28 -33 15 -12 -6 -18 -18
-16 -30 2 -11 -1 -22 -7 -26 -6 -4 -5 -10 3 -15 10 -6 11 -9 2 -9 -7 0 -13 -8
-13 -18 0 -10 -3 -22 -7 -26 -4 -3 -8 -12 -9 -19 -2 -10 -20 -72 -38 -132 -12
-39 -15 -40 -107 -38 -51 1 -94 5 -97 8 -3 3 -5 81 -4 173 l1 168 -24 2 -25 2
0 -200 0 -200 138 0 c153 0 154 0 167 74 4 20 10 36 14 36 3 0 7 19 9 42 2 24
6 46 10 50 13 13 30 -6 35 -37 2 -17 7 -37 10 -45 4 -8 8 -26 11 -40 2 -14 9
-37 15 -52 l11 -28 140 0 140 0 0 350 0 350 -350 0 -351 0 3 -117z"/>
<path d="M335 380 c-3 -5 -1 -10 4 -10 6 0 11 5 11 10 0 6 -2 10 -4 10 -3 0
-8 -4 -11 -10z"/>
</g>
</svg>
